<svg width="36" height="36" viewBox="0 0 36 36" fill="none" xmlns="http://www.w3.org/2000/svg">
<path fill-rule="evenodd" clip-rule="evenodd" d="M33.1256 2.78977C32.5713 2.2362 32.0929 1.75854 31.67 1.39018C31.2248 1.00235 30.7452 0.648502 30.1627 0.407551C28.8489 -0.13585 27.3726 -0.13585 26.0589 0.407551C25.4763 0.648502 24.9967 1.00235 24.5515 1.39018C24.1286 1.75854 23.6504 2.23618 23.0959 2.78975L12.3997 13.4703C11.6579 14.2103 11.0973 14.7697 10.6735 15.435C10.315 15.9979 10.0372 16.6083 9.84832 17.2481C9.62512 18.0044 9.57186 18.794 9.50141 19.8385L9.26598 23.3065C9.24927 23.5512 9.22981 23.8364 9.23463 24.0865C9.24014 24.3706 9.27567 24.7927 9.49081 25.2342C9.75333 25.7732 10.1894 26.2086 10.7291 26.4708C11.1714 26.6855 11.5941 26.721 11.8786 26.7265C12.1289 26.7314 12.4146 26.7119 12.6597 26.6951L16.1326 26.4601C17.1787 26.3898 17.9696 26.3366 18.7269 26.1137C19.3678 25.9252 19.9791 25.6477 20.5428 25.2897C21.2091 24.8665 21.7692 24.3067 22.5102 23.566L33.2065 12.8855C33.7608 12.3319 34.2392 11.8543 34.6081 11.432C34.9965 10.9874 35.3509 10.5086 35.5922 9.9269C36.1363 8.61501 36.1363 7.14098 35.5922 5.82908C35.3509 5.24741 34.9965 4.7686 34.6081 4.32396C34.2392 3.9017 33.7609 3.42412 33.2065 2.87063L33.1256 2.78977ZM28.7947 3.70523C28.8691 3.73599 29.0124 3.81199 29.3202 4.08006C29.6401 4.35873 30.0323 4.74879 30.6383 5.35406C31.2446 5.95934 31.6351 6.35076 31.9143 6.67024C32.1828 6.97759 32.2589 7.12076 32.2896 7.19502C32.471 7.63233 32.471 8.12367 32.2896 8.56097C32.2589 8.63523 32.1828 8.7784 31.9143 9.08576C31.7216 9.30617 31.4761 9.56084 31.1431 9.89638L26.0895 4.85005C26.4255 4.51763 26.6806 4.27233 26.9013 4.08006C27.2091 3.81199 27.3524 3.73599 27.4267 3.70523C27.8648 3.5241 28.3569 3.5241 28.7947 3.70523ZM23.561 7.37321L28.6162 12.4211L20.1011 20.9238C19.1898 21.8338 18.9174 22.0919 18.6243 22.2778C18.3424 22.457 18.0368 22.5957 17.7163 22.6899C17.3832 22.7879 17.0095 22.8232 15.7237 22.9102L12.8626 23.104L13.0565 20.2469C13.1437 18.963 13.1789 18.5898 13.2771 18.2571C13.3716 17.9371 13.5104 17.6319 13.6897 17.3505C13.8761 17.0578 14.1345 16.786 15.0458 15.876L23.561 7.37321Z" fill="white" fill-opacity="0.8"/>
<path d="M16.0955 0.306275C13.6183 0.306257 11.6482 0.306257 10.0596 0.437985C8.43268 0.572889 7.04649 0.855155 5.7804 1.51187C3.82179 2.52782 2.22478 4.12247 1.20736 6.07824C0.549685 7.34246 0.267005 8.72663 0.131903 10.3512C-1.73114e-05 11.9375 -1.74641e-05 13.9047 4.08861e-07 16.3783V19.928C-1.74641e-05 22.4016 -1.73114e-05 24.3689 0.131903 25.9551C0.267005 27.5797 0.549685 28.9639 1.20736 30.2282C2.22478 32.1838 3.82179 33.7784 5.7804 34.7945C7.04649 35.4512 8.43268 35.7334 10.0596 35.8683C11.6482 36 13.6183 36 16.0954 36H19.7386C22.1747 36 24.1123 36 25.6753 35.8726C27.276 35.742 28.641 35.4687 29.8906 34.8328C31.9085 33.8063 33.5491 32.1681 34.5771 30.1532C35.2139 28.9054 35.4876 27.5424 35.6184 25.944C35.746 24.3833 35.746 22.4487 35.746 20.0162V19.9378C35.746 18.9522 34.9458 18.1532 33.9587 18.1532C32.9716 18.1532 32.1714 18.9522 32.1714 19.9378C32.1714 22.466 32.17 24.255 32.0556 25.6535C31.9428 27.0311 31.7294 27.872 31.3922 28.5329C30.7067 29.8761 29.6131 30.9681 28.2679 31.6525C27.6061 31.9893 26.7639 32.2024 25.3843 32.315C23.9838 32.4292 22.1922 32.4307 19.6603 32.4307H16.1751C13.6004 32.4307 11.7788 32.4292 10.3555 32.3113C8.95357 32.1949 8.09901 31.9748 7.4282 31.627C6.12245 30.9497 5.05779 29.8866 4.37951 28.5827C4.03104 27.9129 3.81067 27.0596 3.69424 25.6597C3.57603 24.2384 3.5746 22.4194 3.5746 19.8486V16.4577C3.5746 13.8868 3.57603 12.0678 3.69424 10.6466C3.81067 9.24676 4.03104 8.39344 4.37951 7.72363C5.05779 6.41978 6.12245 5.35667 7.4282 4.67938C8.09901 4.33144 8.95357 4.11137 10.3555 3.99512C11.7788 3.8771 13.6004 3.87565 16.1751 3.87565H17.873C18.8601 3.87565 19.6603 3.07663 19.6603 2.09096C19.6603 1.10532 18.8601 0.306275 17.873 0.306275H16.0955Z" fill="white" fill-opacity="0.8"/>
</svg>
