<svg width="32" height="32" viewBox="0 0 32 32" fill="none" xmlns="http://www.w3.org/2000/svg">
<path fill-rule="evenodd" clip-rule="evenodd" d="M29.4448 2.4798C28.9521 1.98773 28.5268 1.56315 28.151 1.23572C27.7552 0.89098 27.329 0.576447 26.8112 0.362268C25.6433 -0.120756 24.3311 -0.120756 23.1634 0.362268C22.6454 0.576447 22.2192 0.89098 21.8234 1.23572C21.4475 1.56315 21.0224 1.98772 20.5296 2.47978L11.0218 11.9736C10.3625 12.6314 9.86412 13.1286 9.48745 13.72C9.16873 14.2204 8.92181 14.7629 8.75393 15.3316C8.55553 16.0039 8.50819 16.7058 8.44556 17.6343L8.23629 20.717C8.22144 20.9344 8.20414 21.188 8.20843 21.4102C8.21332 21.6628 8.24491 22.0379 8.43614 22.4304C8.66949 22.9095 9.05707 23.2966 9.53685 23.5296C9.93001 23.7205 10.3057 23.752 10.5586 23.757C10.7811 23.7612 11.035 23.7439 11.2529 23.729L14.34 23.5201C15.2698 23.4576 15.9728 23.4103 16.646 23.2122C17.2157 23.0447 17.759 22.798 18.2601 22.4797C18.8524 22.1036 19.3503 21.606 20.009 20.9476L29.5168 11.4538C30.0094 10.9617 30.4347 10.5372 30.7626 10.1618C31.1079 9.76658 31.4229 9.34097 31.6374 8.82392C32.121 7.65779 32.121 6.34755 31.6374 5.18141C31.4229 4.66437 31.1079 4.23876 30.7626 3.84352C30.4347 3.46818 30.0096 3.04367 29.5168 2.55168L29.4448 2.4798ZM25.5952 3.29354C25.6613 3.32089 25.7887 3.38844 26.0623 3.62673C26.3467 3.87443 26.6952 4.22115 27.234 4.75917C27.7728 5.2972 28.12 5.64512 28.3681 5.9291C28.6068 6.20231 28.6744 6.32957 28.7018 6.39558C28.863 6.7843 28.863 7.22105 28.7018 7.60976C28.6744 7.67577 28.6068 7.80303 28.3681 8.07624C28.1969 8.27216 27.9786 8.49853 27.6826 8.79679L23.1905 4.31116C23.4892 4.01568 23.7159 3.79763 23.9121 3.62673C24.1857 3.38844 24.3131 3.32089 24.3792 3.29354C24.7686 3.13254 25.206 3.13254 25.5952 3.29354ZM20.943 6.55397L25.4365 11.041L17.8675 18.599C17.0575 19.4079 16.8153 19.6373 16.5548 19.8026C16.3043 19.9618 16.0326 20.0851 15.7477 20.1689C15.4516 20.2559 15.1194 20.2874 13.9765 20.3646L11.4332 20.5369L11.6057 17.9972C11.6832 16.856 11.7145 16.5243 11.8018 16.2286C11.8857 15.9441 12.0092 15.6729 12.1685 15.4227C12.3342 15.1625 12.5639 14.9209 13.3739 14.112L20.943 6.55397Z" fill="#7E8BFA"/>
<path d="M14.3071 0.272217C12.1052 0.272201 10.354 0.272201 8.94189 0.389293C7.49572 0.509208 6.26354 0.760112 5.13813 1.34386C3.39714 2.24692 1.97758 3.6644 1.07321 5.40286C0.488609 6.52661 0.237338 7.75698 0.117247 9.20106C-1.53879e-05 10.6111 -1.55237e-05 12.3597 3.63432e-07 14.5585V17.7138C-1.55237e-05 19.9125 -1.53879e-05 21.6612 0.117247 23.0712C0.237338 24.5153 0.488609 25.7457 1.07321 26.8695C1.97758 28.6079 3.39714 30.0253 5.13813 30.9284C6.26354 31.5122 7.49572 31.763 8.94189 31.883C10.354 32 12.1051 32 14.307 32H17.5454C19.7108 32 21.4332 32 22.8225 31.8868C24.2453 31.7706 25.4586 31.5278 26.5695 30.9625C28.3631 30.05 29.8214 28.5939 30.7352 26.8029C31.3013 25.6937 31.5445 24.4821 31.6608 23.0614C31.7742 21.6741 31.7742 19.9544 31.7742 17.7922V17.7225C31.7742 16.8464 31.063 16.1361 30.1855 16.1361C29.3081 16.1361 28.5968 16.8464 28.5968 17.7225C28.5968 19.9698 28.5955 21.56 28.4939 22.8031C28.3936 24.0276 28.2039 24.7751 27.9041 25.3626C27.2949 26.5565 26.3227 27.5272 25.1271 28.1356C24.5388 28.4349 23.7902 28.6244 22.5638 28.7245C21.3189 28.826 19.7264 28.8273 17.4758 28.8273H14.3778C12.0893 28.8273 10.47 28.826 9.20485 28.7211C7.95873 28.6177 7.19912 28.4221 6.60285 28.1129C5.44218 27.5109 4.49582 26.5659 3.8929 25.4068C3.58315 24.8115 3.38726 24.053 3.28377 22.8086C3.17869 21.5452 3.17742 19.9284 3.17742 17.6432V14.6291C3.17742 12.3438 3.17869 10.7269 3.28377 9.46364C3.38726 8.21932 3.58315 7.46082 3.8929 6.86543C4.49582 5.70645 5.44218 4.76147 6.60285 4.15943C7.19912 3.85015 7.95873 3.65453 9.20485 3.55119C10.47 3.44628 12.0893 3.445 14.3778 3.445H15.8871C16.7646 3.445 17.4758 2.73476 17.4758 1.85861C17.4758 0.982476 16.7646 0.272217 15.8871 0.272217H14.3071Z" fill="#7E8BFA"/>
</svg>
