<svg width="16" height="16" viewBox="0 0 16 16" fill="none" xmlns="http://www.w3.org/2000/svg">
<path fill-rule="evenodd" clip-rule="evenodd" d="M14.7224 1.2399C14.4761 0.993866 14.2634 0.781575 14.0755 0.617859C13.8776 0.44549 13.6645 0.288223 13.4056 0.181134C12.8217 -0.060378 12.1655 -0.060378 11.5817 0.181134C11.3227 0.288223 11.1096 0.44549 10.9117 0.617859C10.7238 0.781575 10.5112 0.993858 10.2648 1.23989L5.5109 5.98682C5.18124 6.3157 4.93206 6.5643 4.74373 6.86001C4.58436 7.11018 4.4609 7.38145 4.37696 7.66581C4.27777 8.00197 4.25409 8.35288 4.22278 8.81714L4.11815 10.3585C4.11072 10.4672 4.10207 10.594 4.10421 10.7051C4.10666 10.8314 4.12245 11.019 4.21807 11.2152C4.33474 11.4548 4.52854 11.6483 4.76842 11.7648C4.965 11.8602 5.15287 11.876 5.27932 11.8785C5.39056 11.8806 5.51752 11.872 5.62645 11.8645L7.16998 11.7601C7.63492 11.7288 7.98642 11.7052 8.32299 11.6061C8.60785 11.5223 8.87952 11.399 9.13006 11.2399C9.42619 11.0518 9.67515 10.803 10.0045 10.4738L14.7584 5.72689C15.0047 5.48087 15.2174 5.26859 15.3813 5.08091C15.5539 4.88329 15.7115 4.67049 15.8187 4.41196C16.0605 3.8289 16.0605 3.17377 15.8187 2.5907C15.7115 2.33219 15.5539 2.11938 15.3813 1.92176C15.2174 1.73409 15.0048 1.52183 14.7584 1.27584L14.7224 1.2399ZM12.7976 1.64677C12.8306 1.66044 12.8944 1.69422 13.0311 1.81336C13.1733 1.93721 13.3476 2.11057 13.617 2.37959C13.8864 2.6486 14.06 2.82256 14.1841 2.96455C14.3034 3.10116 14.3372 3.16479 14.3509 3.19779C14.4315 3.39215 14.4315 3.61052 14.3509 3.80488C14.3372 3.83788 14.3034 3.90151 14.1841 4.03812C14.0984 4.13608 13.9893 4.24927 13.8413 4.3984L11.5953 2.15558C11.7446 2.00784 11.858 1.89881 11.9561 1.81336C12.0928 1.69422 12.1566 1.66044 12.1896 1.64677C12.3843 1.56627 12.603 1.56627 12.7976 1.64677ZM10.4715 3.27698L12.7182 5.52048L8.93377 9.29948C8.52873 9.70393 8.40767 9.81863 8.2774 9.90128C8.15213 9.98091 8.01629 10.0425 7.87386 10.0844C7.7258 10.128 7.5597 10.1437 6.98824 10.1823L5.71662 10.2684L5.80283 8.99862C5.84158 8.428 5.85724 8.26214 5.90088 8.11429C5.94285 7.97207 6.00458 7.83643 6.08426 7.71134C6.1671 7.58126 6.28194 7.46046 6.68694 7.05601L10.4715 3.27698Z" fill="#7E8BFA"/>
<path d="M7.15357 0.136109C6.05259 0.136101 5.17698 0.136101 4.47094 0.194646C3.74786 0.254604 3.13177 0.380056 2.56907 0.671928C1.69857 1.12346 0.988791 1.8322 0.536603 2.70143C0.244304 3.26331 0.118669 3.87849 0.0586237 4.60053C-7.69394e-06 5.30553 -7.76184e-06 6.17985 1.81716e-07 7.27923V8.8569C-7.76184e-06 9.95627 -7.69394e-06 10.8306 0.0586237 11.5356C0.118669 12.2576 0.244304 12.8728 0.536603 13.4347C0.988791 14.3039 1.69857 15.0126 2.56907 15.4642C3.13177 15.7561 3.74786 15.8815 4.47094 15.9415C5.17698 16 6.05256 16 7.15349 16H8.77271C9.85542 16 10.7166 16 11.4112 15.9434C12.1227 15.8853 12.7293 15.7639 13.2847 15.4813C14.1816 15.025 14.9107 14.2969 15.3676 13.4014C15.6506 12.8468 15.7723 12.2411 15.8304 11.5307C15.8871 10.837 15.8871 9.97721 15.8871 8.89608V8.86126C15.8871 8.42318 15.5315 8.06806 15.0928 8.06806C14.654 8.06806 14.2984 8.42318 14.2984 8.86126C14.2984 9.9849 14.2978 10.78 14.2469 11.4015C14.1968 12.0138 14.102 12.3876 13.9521 12.6813C13.6474 13.2782 13.1614 13.7636 12.5635 14.0678C12.2694 14.2175 11.8951 14.3122 11.2819 14.3622C10.6595 14.413 9.8632 14.4136 8.73792 14.4136H7.18892C6.04464 14.4136 5.235 14.413 4.60243 14.3606C3.97937 14.3088 3.59956 14.211 3.30142 14.0565C2.72109 13.7554 2.24791 13.2829 1.94645 12.7034C1.79157 12.4057 1.69363 12.0265 1.64189 11.4043C1.58935 10.7726 1.58871 9.9642 1.58871 8.8216V7.31453C1.58871 6.17192 1.58935 5.36347 1.64189 4.73182C1.69363 4.10966 1.79157 3.73041 1.94645 3.43272C2.24791 2.85322 2.72109 2.38073 3.30142 2.07972C3.59956 1.92507 3.97937 1.82726 4.60243 1.7756C5.235 1.72314 6.04464 1.7225 7.18892 1.7225H7.94356C8.38228 1.7225 8.73792 1.36738 8.73792 0.929304C8.73792 0.491238 8.38228 0.136109 7.94356 0.136109H7.15357Z" fill="#7E8BFA"/>
</svg>
