<svg width="48" height="48" viewBox="0 0 48 48" fill="none" xmlns="http://www.w3.org/2000/svg">
<path fill-rule="evenodd" clip-rule="evenodd" d="M45.1765 31.7342C43.4598 32.9455 40.4584 34.6481 36.5788 35.6985C36.1073 33.1347 34.2607 31.0142 31.6772 30.2208C29.3845 29.515 27.0494 29.0124 24.6889 28.6792C26.4875 27.1601 27.7299 25.034 28.0885 22.6001C28.6362 22.5804 29.2094 22.5691 29.8645 22.5691C34.0151 22.5917 38.1431 23.227 42.1384 24.4552C43.9539 25.0142 45.1765 26.6491 45.1765 28.5267V31.7342ZM33.8824 40.2048C31.0278 42.2236 25.6264 45.1573 18.353 45.1573C15.1172 45.1573 8.87436 44.5022 2.82353 40.2048V36.986C2.82353 35.1112 4.04896 33.4735 5.86728 32.9145C9.92753 31.6721 14.1261 31.0425 18.353 31.0425H18.5647C22.7294 31.0622 26.8602 31.6947 30.8499 32.9201C32.6626 33.4763 33.8824 35.1112 33.8824 36.986V40.2048H33.8824ZM11.2941 21.1573V18.3338C11.2941 14.443 14.4593 11.275 18.353 11.275C22.2466 11.275 25.4118 14.443 25.4118 18.3338V21.1573C25.4118 25.051 22.2466 28.2161 18.353 28.2161C14.4593 28.2161 11.2941 25.051 11.2941 21.1573H11.2941ZM29.6471 2.80438C31.5276 2.80438 33.3007 3.54133 34.6362 4.87685C35.969 6.21238 36.7059 7.98273 36.7059 9.8632V12.6867C36.7059 16.5804 33.5407 19.7455 29.6471 19.7455C29.1558 19.7455 28.6871 19.6806 28.2353 19.5846V18.3338C28.2353 14.4232 25.9341 11.066 22.6306 9.46507C22.8395 5.76343 25.8918 2.80438 29.6471 2.80438ZM42.9685 21.7559C40.6842 21.0556 38.3548 20.5502 35.9746 20.2142C38.129 18.4015 39.5294 15.7192 39.5294 12.6867V9.86317C39.5294 7.22883 38.5017 4.74693 36.6325 2.88058C34.7633 1.01141 32.2842 -0.019165 29.6471 -0.019165C24.6297 -0.019165 20.5186 3.75588 19.8918 8.60952C19.3864 8.52765 18.881 8.4514 18.353 8.4514C12.9035 8.4514 8.47061 12.8871 8.47061 18.3337V21.1573C8.47061 24.1897 9.87106 26.8721 12.0282 28.6876C9.67061 29.018 7.32423 29.5149 5.04001 30.2151C2.02731 31.1413 7.62939e-06 33.8632 7.62939e-06 36.986V41.6279L0.564708 42.0514C7.44566 47.21 14.6598 47.9808 18.353 47.9808C26.9591 47.9808 33.1934 44.2651 36.1412 42.0514L36.7059 41.6279V38.6152C41.8362 37.3502 45.5972 34.9644 47.4353 33.5808L48 33.1573V28.5267C48 25.4011 45.9755 22.6792 42.9685 21.7559Z" fill="white" fill-opacity="0.8"/>
</svg>
