<svg width="40" height="40" viewBox="0 0 40 40" fill="none" xmlns="http://www.w3.org/2000/svg">
<path d="M39.9998 10.8858L39.9998 11.0061C39.9734 13.9575 38.7544 16.7799 36.6068 18.8617L17.2535 37.7135C15.7472 39.1777 13.7063 40 11.5784 40C9.45059 40 7.40963 39.1777 5.90335 37.7135L5.71677 37.5317C4.21381 36.0642 3.36974 34.0759 3.36974 32.0028C3.36974 29.9298 4.21381 27.9415 5.71676 26.474L25.3973 7.30341C26.3406 6.38444 27.6199 5.86817 28.9539 5.86817C30.2879 5.86817 31.5673 6.38444 32.5105 7.30341C33.4538 8.22237 33.9837 9.46876 33.9837 10.7684C33.9837 12.068 33.4538 13.3144 32.5105 14.2333L19.194 27.2067C18.8956 27.4974 18.4908 27.6608 18.0688 27.6608C17.6467 27.6608 17.2419 27.4974 16.9435 27.2067C16.6451 26.9159 16.4774 26.5216 16.4774 26.1104C16.4774 25.6993 16.6451 25.3049 16.9435 25.0142L30.2629 12.0408C30.4344 11.8734 30.5704 11.6746 30.6631 11.456C30.7558 11.2373 30.8033 11.003 30.8031 10.7664C30.8028 10.5298 30.7547 10.2956 30.6615 10.0771C30.5683 9.85868 30.4319 9.66023 30.26 9.49313C30.0881 9.32603 29.8841 9.19355 29.6597 9.10326C29.4352 9.01297 29.1947 8.96663 28.9519 8.96689C28.7091 8.96715 28.4687 9.014 28.2444 9.10478C28.0202 9.19555 27.8165 9.32846 27.6449 9.49593L7.96441 28.6637C7.06094 29.551 6.55398 30.7502 6.55399 32C6.55399 33.2499 7.06094 34.4491 7.96441 35.3364L8.15387 35.5209C9.06465 36.4011 10.2956 36.895 11.5784 36.895C12.8613 36.895 14.0922 36.4011 15.003 35.5209L34.3563 16.6664C35.9149 15.1573 36.7999 13.1104 36.8192 10.9697L36.8192 10.883C36.8279 9.85142 36.6242 8.82858 36.2201 7.87498C35.8161 6.92138 35.2199 6.05636 34.4669 5.33105C33.7138 4.60575 32.8192 4.03488 31.8358 3.65218C30.8524 3.26948 29.8002 3.08272 28.7415 3.10294C26.5443 3.12241 24.4435 3.98449 22.8942 5.50241L2.71416 25.1624C2.56639 25.3062 2.391 25.4202 2.198 25.4979C2.005 25.5757 1.79817 25.6156 1.58932 25.6155C1.38048 25.6154 1.1737 25.5752 0.980805 25.4972C0.787907 25.4192 0.612664 25.305 0.465082 25.161C0.317499 25.017 0.200468 24.8462 0.120669 24.6581C0.0408696 24.4701 -0.000133643 24.2686 -3.72663e-07 24.0651C0.000132898 23.8617 0.0414001 23.6602 0.121445 23.4723C0.201491 23.2844 0.318746 23.1137 0.466517 22.9699L20.6465 3.30989C22.7826 1.21614 25.6799 0.0273855 28.7099 0.00152832C30.189 -0.0227142 31.6581 0.241224 33.031 0.777837C34.4039 1.31445 35.6529 2.11292 36.7046 3.12635C37.7564 4.13978 38.5897 5.34774 39.1555 6.67929C39.7214 8.01083 40.0084 9.43911 39.9998 10.8802L39.9998 10.8858Z" fill="white"/>
</svg>
