<svg width="45" height="45" viewBox="0 0 45 45" fill="none" xmlns="http://www.w3.org/2000/svg">
<path d="M44.9998 12.2466L44.9998 12.3818C44.9701 15.7022 43.5987 18.8773 41.1827 21.2194L19.4102 42.4276C17.7157 44.0749 15.4196 45 13.0257 45C10.6319 45 8.33584 44.0749 6.64127 42.4276L6.43136 42.2231C4.74054 40.5722 3.79096 38.3353 3.79096 36.0032C3.79096 33.671 4.74054 31.4341 6.43136 29.7832L28.572 8.21634C29.6331 7.1825 31.0724 6.6017 32.5732 6.6017C34.0739 6.6017 35.5132 7.1825 36.5743 8.21633C37.6355 9.25017 38.2317 10.6524 38.2317 12.1144C38.2317 13.5765 37.6355 14.9787 36.5743 16.0125L21.5933 30.6075C21.2575 30.9346 20.8022 31.1184 20.3274 31.1184C19.8526 31.1184 19.3972 30.9346 19.0614 30.6075C18.7257 30.2804 18.5371 29.8368 18.5371 29.3742C18.5371 28.9117 18.7257 28.468 19.0614 28.1409L34.0457 13.5459C34.2387 13.3575 34.3917 13.1339 34.496 12.8879C34.6002 12.6419 34.6537 12.3783 34.6534 12.1122C34.6531 11.8461 34.599 11.5826 34.4942 11.3368C34.3894 11.091 34.2359 10.8678 34.0425 10.6798C33.8491 10.4918 33.6196 10.3427 33.3671 10.2412C33.1146 10.1396 32.8441 10.0875 32.5709 10.0878C32.2977 10.088 32.0272 10.1408 31.775 10.2429C31.5227 10.345 31.2935 10.4945 31.1006 10.6829L8.95996 32.2467C7.94356 33.2449 7.37323 34.594 7.37323 36C7.37323 37.4061 7.94356 38.7552 8.95996 39.7534L9.1731 39.9611C10.1977 40.9513 11.5825 41.5069 13.0257 41.5069C14.469 41.5069 15.8538 40.9513 16.8784 39.9611L38.6508 18.7497C40.4043 17.052 41.3999 14.7492 41.4216 12.3409L41.4216 12.2434C41.4314 11.0828 41.2022 9.93216 40.7476 8.85935C40.2931 7.78655 39.6224 6.8134 38.7752 5.99744C37.928 5.18147 36.9215 4.53924 35.8152 4.1087C34.7089 3.67817 33.5253 3.46806 32.3342 3.49081C29.8624 3.51271 27.4989 4.48255 25.7559 6.19021L3.05343 28.3077C2.88719 28.4694 2.68987 28.5977 2.47275 28.6852C2.25562 28.7726 2.02294 28.8176 1.78799 28.8174C1.55304 28.8173 1.32042 28.7721 1.10341 28.6843C0.886396 28.5966 0.689247 28.4681 0.523217 28.3061C0.357187 28.1442 0.225526 27.9519 0.135752 27.7404C0.0459783 27.5289 -0.000150349 27.3022 -4.19246e-07 27.0733C0.00014951 26.8444 0.0465751 26.6178 0.136626 26.4063C0.226677 26.1949 0.358589 26.0029 0.524831 25.8411L23.2273 3.72363C25.6304 1.36816 28.8899 0.0308095 32.2987 0.00172021C33.9626 -0.0255526 35.6154 0.271377 37.1599 0.875067C38.7044 1.47876 40.1095 2.37703 41.2927 3.51715C42.4759 4.65726 43.4134 6.01621 44.05 7.5142C44.6866 9.01219 45.0095 10.619 44.9998 12.2403L44.9998 12.2466Z" fill="white" fill-opacity="0.7"/>
</svg>
