<svg width="49" height="49" viewBox="0 0 49 49" fill="none" xmlns="http://www.w3.org/2000/svg">
<path d="M48.6667 24.6666C48.6667 11.4426 37.8907 0.666626 24.6667 0.666626C11.4427 0.666626 0.666687 11.4426 0.666687 24.6666C0.666687 31.6266 3.66669 37.8906 8.41869 42.2826C8.41869 42.3066 8.41869 42.3066 8.39469 42.3306C8.63469 42.5706 8.92269 42.7626 9.16269 42.9786C9.30669 43.0986 9.42669 43.2186 9.57069 43.3146C10.0027 43.6746 10.4827 44.0106 10.9387 44.3466C11.1067 44.4666 11.2507 44.5626 11.4187 44.6826C11.8747 44.9946 12.3547 45.2826 12.8587 45.5466C13.0267 45.6426 13.2187 45.7626 13.3867 45.8586C13.8667 46.1226 14.3707 46.3626 14.8987 46.5786C15.0907 46.6746 15.2827 46.7706 15.4747 46.8426C16.0027 47.0586 16.5307 47.2506 17.0587 47.4186C17.2507 47.4906 17.4427 47.5626 17.6347 47.6106C18.2107 47.7786 18.7867 47.9226 19.3627 48.0666C19.5307 48.1146 19.6987 48.1626 19.8907 48.1866C20.5627 48.3306 21.2347 48.4266 21.9307 48.4986C22.0267 48.4986 22.1227 48.5226 22.2187 48.5466C23.0347 48.6186 23.8507 48.6666 24.6667 48.6666C25.4827 48.6666 26.2987 48.6186 27.0907 48.5466C27.1867 48.5466 27.2827 48.5226 27.3787 48.4986C28.0747 48.4266 28.7467 48.3306 29.4187 48.1866C29.5867 48.1626 29.7547 48.0906 29.9467 48.0666C30.5227 47.9226 31.1227 47.8026 31.6747 47.6106C31.8667 47.5386 32.0587 47.4666 32.2507 47.4186C32.7787 47.2266 33.3307 47.0586 33.8347 46.8426C34.0267 46.7706 34.2187 46.6746 34.4107 46.5786C34.9147 46.3626 35.4187 46.1226 35.9227 45.8586C36.1147 45.7626 36.2827 45.6426 36.4507 45.5466C36.9307 45.2586 37.4107 44.9946 37.8907 44.6826C38.0587 44.5866 38.2027 44.4666 38.3707 44.3466C38.8507 44.0106 39.3067 43.6746 39.7387 43.3146C39.8827 43.1946 40.0027 43.0746 40.1467 42.9786C40.4107 42.7626 40.6747 42.5466 40.9147 42.3306C40.9147 42.3066 40.9147 42.3066 40.8907 42.2826C45.6667 37.8906 48.6667 31.6266 48.6667 24.6666ZM36.5227 36.5946C30.0187 32.2266 19.3627 32.2266 12.8107 36.5946C11.7547 37.2906 10.8907 38.1066 10.1707 38.9946C6.52269 35.2986 4.26669 30.2346 4.26669 24.6666C4.26669 13.4106 13.4107 4.26663 24.6667 4.26663C35.9227 4.26663 45.0667 13.4106 45.0667 24.6666C45.0667 30.2346 42.8107 35.2986 39.1627 38.9946C38.4667 38.1066 37.5787 37.2906 36.5227 36.5946Z" fill="white" fill-opacity="0.8"/>
<path d="M24.6667 12.4979C19.6987 12.4979 15.6667 16.5299 15.6667 21.4979C15.6667 26.3699 19.4827 30.3299 24.5467 30.4739C24.6187 30.4739 24.7147 30.4739 24.7627 30.4739C24.8107 30.4739 24.8827 30.4739 24.9307 30.4739C24.9547 30.4739 24.9787 30.4739 24.9787 30.4739C29.8267 30.3059 33.6427 26.3699 33.6667 21.4979C33.6667 16.5299 29.6347 12.4979 24.6667 12.4979Z" fill="white" fill-opacity="0.8"/>
</svg>
