<svg width="39" height="54" viewBox="0 0 39 54" fill="none" xmlns="http://www.w3.org/2000/svg">
<path fill-rule="evenodd" clip-rule="evenodd" d="M7.31274 12.8571C7.31274 5.75635 12.7692 0 19.4999 0C26.2309 0 31.6871 5.75635 31.6871 12.8571V23.1429C31.6871 30.2436 26.2309 36 19.4999 36C12.7692 36 7.31274 30.2436 7.31274 23.1429V12.8571ZM19.4999 5.14286C15.4615 5.14286 12.1876 8.59667 12.1876 12.8571V23.1429C12.1876 27.4035 15.4615 30.8571 19.4999 30.8571C23.5385 30.8571 26.8122 27.4035 26.8122 23.1429V12.8571C26.8122 8.59667 23.5385 5.14286 19.4999 5.14286ZM1.20642 31.2094C2.36814 30.492 3.86124 30.9039 4.54134 32.1295C7.53146 37.5179 13.1078 41.1429 19.4999 41.1429C25.8921 41.1429 31.4685 37.5179 34.4585 32.1295C35.1388 30.9039 36.6317 30.492 37.7937 31.2094C38.9554 31.9269 39.3458 33.5021 38.6655 34.7277C35.2163 40.9436 29.0866 45.3271 21.9373 46.1469V51.4286C21.9373 52.8488 20.8461 54 19.4999 54C18.1539 54 17.0624 52.8488 17.0624 51.4286V46.1469C9.9134 45.3271 3.78366 40.9436 0.33433 34.7277C-0.345766 33.5021 0.0446885 31.9269 1.20642 31.2094Z" fill="white"/>
</svg>
