<svg width="26" height="34" viewBox="0 0 26 34" fill="none" xmlns="http://www.w3.org/2000/svg">
<path fill-rule="evenodd" clip-rule="evenodd" d="M4.87516 8.09524C4.87516 3.62437 8.51278 0 12.9999 0C17.4873 0 21.1247 3.62437 21.1247 8.09524V14.5714C21.1247 19.0423 17.4873 22.6667 12.9999 22.6667C8.51278 22.6667 4.87516 19.0423 4.87516 14.5714V8.09524ZM12.9999 3.2381C10.3077 3.2381 8.12509 5.41272 8.12509 8.09524V14.5714C8.12509 17.254 10.3077 19.4286 12.9999 19.4286C15.6923 19.4286 17.8748 17.254 17.8748 14.5714V8.09524C17.8748 5.41272 15.6923 3.2381 12.9999 3.2381ZM0.804283 19.6504C1.57876 19.1987 2.57416 19.458 3.02756 20.2297C5.02097 23.6224 8.73853 25.9048 12.9999 25.9048C17.2614 25.9048 20.979 23.6224 22.9723 20.2297C23.4259 19.458 24.4212 19.1987 25.1958 19.6504C25.9702 20.1021 26.2306 21.0939 25.777 21.8656C23.4775 25.7793 19.3911 28.5393 14.6249 29.0554V32.381C14.6249 33.2752 13.8974 34 12.9999 34C12.1026 34 11.375 33.2752 11.375 32.381V29.0554C6.60893 28.5393 2.52244 25.7793 0.222887 21.8656C-0.230511 21.0939 0.0297923 20.1021 0.804283 19.6504Z" fill="white" fill-opacity="0.7"/>
</svg>
