<svg width="33" height="32" viewBox="0 0 33 32" fill="none" xmlns="http://www.w3.org/2000/svg">
<path fill-rule="evenodd" clip-rule="evenodd" d="M18.2323 3.55556C24.1234 3.55556 28.899 8.33119 28.899 14.2222C28.899 20.1133 24.1234 24.8889 18.2323 24.8889C12.3413 24.8889 7.56567 20.1133 7.56567 14.2222C7.56567 8.33119 12.3413 3.55556 18.2323 3.55556ZM32.4546 14.2222C32.4546 6.36751 26.0871 0 18.2323 0C10.3776 0 4.01011 6.36751 4.01011 14.2222C4.01011 17.5088 5.12495 20.5351 6.99695 22.9433L0.975259 28.9652C0.281035 29.6594 0.281035 30.7851 0.975259 31.4793C1.66948 32.1736 2.79517 32.1736 3.4894 31.4793L9.51127 25.4576C11.9195 27.3296 14.9458 28.4445 18.2323 28.4445C26.0871 28.4445 32.4546 22.077 32.4546 14.2222Z" fill="white" fill-opacity="0.8"/>
</svg>
