<svg width="40" height="40" viewBox="0 0 40 40" fill="none" xmlns="http://www.w3.org/2000/svg">
<path fill-rule="evenodd" clip-rule="evenodd" d="M22.2222 4.44445C29.586 4.44445 35.5555 10.414 35.5555 17.7778C35.5555 25.1416 29.586 31.1112 22.2222 31.1112C14.8584 31.1112 8.88885 25.1416 8.88885 17.7778C8.88885 10.414 14.8584 4.44445 22.2222 4.44445ZM40 17.7778C40 7.95939 32.0406 0 22.2222 0C12.4037 0 4.4444 7.95939 4.4444 17.7778C4.4444 21.886 5.83795 25.6689 8.17796 28.6791L0.650837 36.2065C-0.216942 37.0743 -0.216942 38.4814 0.650837 39.3492C1.51862 40.2169 2.92573 40.2169 3.79351 39.3492L11.3209 31.822C14.3311 34.162 18.114 35.5556 22.2222 35.5556C32.0406 35.5556 40 27.5963 40 17.7778Z" fill="white"/>
</svg>
