<svg width="32" height="32" viewBox="0 0 32 32" fill="none" xmlns="http://www.w3.org/2000/svg">
<path fill-rule="evenodd" clip-rule="evenodd" d="M14.2222 3.55556C8.33119 3.55556 3.55556 8.33119 3.55556 14.2222C3.55556 20.1133 8.33119 24.8889 14.2222 24.8889C20.1133 24.8889 24.8889 20.1133 24.8889 14.2222C24.8889 8.33119 20.1133 3.55556 14.2222 3.55556ZM0 14.2222C0 6.36751 6.36751 0 14.2222 0C22.077 0 28.4445 6.36751 28.4445 14.2222C28.4445 17.5088 27.3296 20.5351 25.4576 22.9433L31.4793 28.9652C32.1736 29.6594 32.1736 30.7851 31.4793 31.4793C30.7851 32.1736 29.6594 32.1736 28.9652 31.4793L22.9433 25.4576C20.5351 27.3296 17.5088 28.4445 14.2222 28.4445C6.36751 28.4445 0 22.077 0 14.2222Z" fill="white"/>
</svg>
