<svg width="49" height="49" viewBox="0 0 49 49" fill="none" xmlns="http://www.w3.org/2000/svg">
<path d="M24.9782 33.0606C26.7864 33.0606 28.5541 32.5488 30.0576 31.5898C31.5611 30.6309 32.7329 29.2679 33.4249 27.6732C34.1169 26.0785 34.2979 24.3237 33.9452 22.6308C33.5924 20.9378 32.7216 19.3828 31.443 18.1623C30.1644 16.9417 28.5353 16.1105 26.7618 15.7738C24.9883 15.437 23.15 15.6099 21.4794 16.2704C19.8088 16.931 18.3809 18.0496 17.3763 19.4848C16.3717 20.92 15.8355 22.6073 15.8355 24.3334C15.8355 26.648 16.7987 28.8678 18.5133 30.5045C20.2279 32.1412 22.5534 33.0606 24.9782 33.0606ZM24.9782 19.9697C25.8823 19.9697 26.7661 20.2257 27.5179 20.7051C28.2696 21.1846 28.8555 21.8661 29.2015 22.6635C29.5475 23.4608 29.638 24.3382 29.4617 25.1847C29.2853 26.0311 28.8499 26.8087 28.2106 27.4189C27.5713 28.0292 26.7567 28.4448 25.87 28.6132C24.9832 28.7815 24.0641 28.6951 23.2288 28.3648C22.3935 28.0346 21.6795 27.4753 21.1772 26.7577C20.6749 26.0401 20.4068 25.1964 20.4068 24.3334C20.4068 23.1761 20.8884 22.0662 21.7457 21.2478C22.603 20.4295 23.7658 19.9697 24.9782 19.9697ZM5.54993 26.2468L3.26426 27.5101C2.7442 27.7965 2.28833 28.1778 1.92267 28.6323C1.55702 29.0869 1.28874 29.6057 1.13316 30.1592C0.977585 30.7127 0.937753 31.2901 1.01594 31.8583C1.09413 32.4265 1.28881 32.9744 1.58886 33.4708L4.99223 39.0956C5.29202 39.5927 5.69157 40.0286 6.16801 40.3783C6.64446 40.7279 7.18845 40.9844 7.76887 41.1332C8.34928 41.2819 8.95472 41.32 9.55056 41.2451C10.1464 41.1703 10.7209 40.984 11.2413 40.697L13.5498 39.4228C13.9021 39.233 14.3006 39.1353 14.7051 39.1395C15.1097 39.1437 15.5059 39.2497 15.8537 39.4468C16.1973 39.6367 16.4826 39.9093 16.6812 40.2374C16.8797 40.5656 16.9845 40.9377 16.9852 41.3166V43.9697C16.9852 45.127 17.4668 46.237 18.3241 47.0553C19.1814 47.8736 20.3441 48.3334 21.5565 48.3334H28.4135C29.6259 48.3334 30.7887 47.8736 31.6459 47.0553C32.5032 46.237 32.9849 45.127 32.9849 43.9697V41.3123C32.991 40.9316 33.1004 40.5589 33.3024 40.2306C33.5045 39.9024 33.7923 39.6297 34.1377 39.4394C34.4832 39.249 34.8744 39.1474 35.2733 39.1445C35.6721 39.1416 36.0649 39.2375 36.4134 39.4228L38.7196 40.6926C39.7696 41.2713 41.0173 41.4281 42.1884 41.1286C43.3594 40.8291 44.3579 40.0978 44.9641 39.0956L48.3652 33.4708C48.6652 32.9744 48.8599 32.4265 48.9381 31.8583C49.0163 31.2901 48.9764 30.7127 48.8209 30.1592C48.6653 29.6057 48.397 29.0869 48.0313 28.6323C47.6657 28.1778 47.2098 27.7965 46.6898 27.5101L44.4041 26.2468C44.0496 26.0497 43.7567 25.7658 43.5558 25.4244C43.3549 25.083 43.2532 24.6965 43.2613 24.305C43.2621 23.9228 43.3681 23.5474 43.5686 23.2166C43.7692 22.8858 44.0573 22.611 44.4041 22.4199L46.6898 21.1566C47.2098 20.8703 47.6657 20.489 48.0313 20.0344C48.397 19.5799 48.6653 19.0611 48.8209 18.5075C48.9764 17.954 49.0163 17.3767 48.9381 16.8085C48.8599 16.2403 48.6652 15.6923 48.3652 15.1959L44.9595 9.57119C44.6597 9.07458 44.2604 8.63922 43.7843 8.28996C43.3082 7.9407 42.7647 7.68439 42.1848 7.53568C41.6049 7.38696 41 7.34875 40.4047 7.42323C39.8093 7.4977 39.2352 7.68341 38.715 7.96974L36.4065 9.24174C36.058 9.42781 35.6648 9.52424 35.2656 9.52155C34.8663 9.51887 34.4745 9.41716 34.1288 9.22642C33.7831 9.03568 33.4953 8.76244 33.2935 8.43351C33.0918 8.10457 32.983 7.73124 32.978 7.3501V4.69701C32.978 3.5397 32.4964 2.42979 31.6391 1.61145C30.7818 0.793113 29.6191 0.333374 28.4067 0.333374H21.5496C20.3372 0.333374 19.1745 0.793113 18.3172 1.61145C17.4599 2.42979 16.9783 3.5397 16.9783 4.69701V7.52028C16.9782 7.84772 16.8878 8.16936 16.716 8.45281C16.5443 8.73625 16.2973 8.97149 16 9.13483L15.648 9.32901C15.3506 9.49044 15.0142 9.57531 14.6721 9.57531C14.3299 9.57531 13.9935 9.49044 13.6961 9.32901L11.2413 7.96974C10.7213 7.68289 10.1472 7.49666 9.55178 7.42168C8.95638 7.3467 8.35133 7.38445 7.77122 7.53277C7.1911 7.68108 6.64729 7.93706 6.17085 8.28608C5.69441 8.63509 5.29468 9.0703 4.99451 9.56683L1.59343 15.1981C0.987796 16.1999 0.823584 17.3902 1.13688 18.5075C1.45018 19.6248 2.21535 20.5776 3.26426 21.1566L5.54993 22.4177C5.90412 22.6157 6.19668 22.9001 6.39754 23.2418C6.5984 23.5835 6.7003 23.97 6.69277 24.3617C6.69335 24.7442 6.58794 25.1201 6.38723 25.4512C6.18652 25.7822 5.89766 26.0567 5.54993 26.2468ZM7.8356 18.6388L5.54993 17.3777L8.95558 11.753L11.4104 13.1057C12.4014 13.6494 13.5245 13.9355 14.6675 13.9355C15.8105 13.9355 16.9335 13.6494 17.9246 13.1057L18.2766 12.9137C19.2691 12.367 20.0938 11.5811 20.6682 10.6346C21.2426 9.68804 21.5466 8.61414 21.5496 7.52028V4.69701H28.4067V7.3501C28.4114 8.49737 28.7311 9.62341 29.334 10.6159C29.9368 11.6085 30.8017 12.4328 31.8424 13.0068C32.883 13.5807 34.0631 13.8842 35.265 13.8871C36.4669 13.8899 37.6486 13.5919 38.6922 13.0228L40.9939 11.753L44.4064 17.3777L42.1207 18.6388C41.0799 19.2206 40.2168 20.0522 39.617 21.051C39.0171 22.0498 38.7016 23.181 38.7016 24.3323C38.7016 25.4836 39.0171 26.6148 39.617 27.6136C40.2168 28.6124 41.0799 29.444 42.1207 30.0257L44.4064 31.289L41.0053 36.9137L38.6922 35.6439C37.6486 35.0748 36.4669 34.7769 35.265 34.7797C34.0631 34.7825 32.883 35.086 31.8424 35.66C30.8017 36.2339 29.9368 37.0583 29.334 38.0508C28.7311 39.0433 28.4114 40.1694 28.4067 41.3166V43.9697H21.5496V41.3166C21.5463 40.1689 21.2274 39.042 20.6249 38.0487C20.0224 37.0554 19.1573 36.2305 18.1162 35.6563C17.0751 35.082 15.8943 34.7787 14.6919 34.7765C13.4895 34.7744 12.3075 35.0735 11.2641 35.6439L8.96244 36.9137L5.54993 31.289L7.8356 30.0257C8.87636 29.444 9.73953 28.6124 10.3393 27.6136C10.9392 26.6148 11.2547 25.4836 11.2547 24.3323C11.2547 23.181 10.9392 22.0498 10.3393 21.051C9.73953 20.0522 8.87636 19.2206 7.8356 18.6388Z" fill="white" fill-opacity="0.8"/>
</svg>
