<svg width="40" height="40" viewBox="0 0 40 40" fill="none" xmlns="http://www.w3.org/2000/svg">
<path d="M20 0C8.95161 0 0 8.95161 0 20C0 31.0484 8.95161 40 20 40C31.0484 40 40 31.0484 40 20C40 8.95161 31.0484 0 20 0ZM20 36.129C11.1048 36.129 3.87097 28.8952 3.87097 20C3.87097 11.1048 11.1048 3.87097 20 3.87097C28.8952 3.87097 36.129 11.1048 36.129 20C36.129 28.8952 28.8952 36.129 20 36.129ZM13.5484 18.7097C14.9758 18.7097 16.129 17.5565 16.129 16.129C16.129 14.7016 14.9758 13.5484 13.5484 13.5484C12.121 13.5484 10.9677 14.7016 10.9677 16.129C10.9677 17.5565 12.121 18.7097 13.5484 18.7097ZM26.4516 18.7097C27.879 18.7097 29.0323 17.5565 29.0323 16.129C29.0323 14.7016 27.879 13.5484 26.4516 13.5484C25.0242 13.5484 23.871 14.7016 23.871 16.129C23.871 17.5565 25.0242 18.7097 26.4516 18.7097ZM26.7742 24.5645C25.0968 26.5806 22.621 27.7419 20 27.7419C17.379 27.7419 14.9032 26.5887 13.2258 24.5645C12.5403 23.7419 11.3145 23.6371 10.5 24.3145C9.67742 25 9.57258 26.2177 10.25 27.0403C12.6694 29.9435 16.2258 31.6048 20 31.6048C23.7742 31.6048 27.3306 29.9435 29.75 27.0403C30.4355 26.2177 30.3226 25 29.5 24.3145C28.6855 23.6371 27.4597 23.7419 26.7742 24.5645Z" fill="white"/>
</svg>
